<mxfile host="app.diagrams.net" modified="2023-09-01T13:02:53.043Z" agent="Mozilla/5.0 (Windows NT 10.0; Win64; x64) AppleWebKit/537.36 (KHTML, like Gecko) Chrome/116.0.0.0 Safari/537.36" etag="Gs9shHNUGgmJJY754hEU" version="21.7.1" type="device">
  <diagram name="第 1 页" id="lb4tvIsjDeVWngQY5oFR">
    <mxGraphModel dx="1152" dy="630" grid="1" gridSize="10" guides="1" tooltips="1" connect="1" arrows="1" fold="1" page="1" pageScale="1" pageWidth="827" pageHeight="1169" math="0" shadow="0">
      <root>
        <mxCell id="0" />
        <mxCell id="1" parent="0" />
        <mxCell id="FX57eBz4ZlxFUzL5xX__-2" value="root" style="ellipse;whiteSpace=wrap;html=1;" parent="1" vertex="1">
          <mxGeometry x="170" y="240" width="120" height="80" as="geometry" />
        </mxCell>
        <mxCell id="FX57eBz4ZlxFUzL5xX__-3" value="0" style="text;html=1;strokeColor=none;fillColor=none;align=center;verticalAlign=middle;whiteSpace=wrap;rounded=0;" parent="1" vertex="1">
          <mxGeometry x="200" y="210" width="60" height="30" as="geometry" />
        </mxCell>
        <mxCell id="FX57eBz4ZlxFUzL5xX__-4" value="stu1" style="ellipse;whiteSpace=wrap;html=1;" parent="1" vertex="1">
          <mxGeometry x="80" y="390" width="120" height="80" as="geometry" />
        </mxCell>
        <mxCell id="FX57eBz4ZlxFUzL5xX__-5" value="1" style="text;html=1;strokeColor=none;fillColor=none;align=center;verticalAlign=middle;whiteSpace=wrap;rounded=0;" parent="1" vertex="1">
          <mxGeometry x="110" y="360" width="60" height="30" as="geometry" />
        </mxCell>
        <mxCell id="FX57eBz4ZlxFUzL5xX__-6" value="stu2" style="ellipse;whiteSpace=wrap;html=1;" parent="1" vertex="1">
          <mxGeometry x="294" y="470" width="120" height="80" as="geometry" />
        </mxCell>
        <mxCell id="FX57eBz4ZlxFUzL5xX__-7" value="2" style="text;html=1;strokeColor=none;fillColor=none;align=center;verticalAlign=middle;whiteSpace=wrap;rounded=0;" parent="1" vertex="1">
          <mxGeometry x="324" y="440" width="60" height="30" as="geometry" />
        </mxCell>
        <mxCell id="FX57eBz4ZlxFUzL5xX__-9" value="" style="endArrow=classic;html=1;rounded=0;exitX=0.5;exitY=1;exitDx=0;exitDy=0;entryX=1;entryY=0;entryDx=0;entryDy=0;" parent="1" source="FX57eBz4ZlxFUzL5xX__-2" target="FX57eBz4ZlxFUzL5xX__-4" edge="1">
          <mxGeometry width="50" height="50" relative="1" as="geometry">
            <mxPoint x="280" y="330" as="sourcePoint" />
            <mxPoint x="240" y="390" as="targetPoint" />
          </mxGeometry>
        </mxCell>
        <mxCell id="FX57eBz4ZlxFUzL5xX__-12" value="" style="endArrow=classic;html=1;rounded=0;entryX=0;entryY=0.5;entryDx=0;entryDy=0;exitX=1;exitY=1;exitDx=0;exitDy=0;" parent="1" source="FX57eBz4ZlxFUzL5xX__-4" target="FX57eBz4ZlxFUzL5xX__-6" edge="1">
          <mxGeometry width="50" height="50" relative="1" as="geometry">
            <mxPoint x="420" y="310" as="sourcePoint" />
            <mxPoint x="470" y="260" as="targetPoint" />
          </mxGeometry>
        </mxCell>
        <mxCell id="FX57eBz4ZlxFUzL5xX__-14" value="&lt;font color=&quot;#ff0000&quot;&gt;108&lt;/font&gt;" style="text;html=1;strokeColor=none;fillColor=none;align=center;verticalAlign=middle;whiteSpace=wrap;rounded=0;" parent="1" vertex="1">
          <mxGeometry x="280" y="265" width="60" height="30" as="geometry" />
        </mxCell>
        <mxCell id="FX57eBz4ZlxFUzL5xX__-15" value="&lt;font color=&quot;#ff0000&quot;&gt;36&lt;/font&gt;" style="text;html=1;strokeColor=none;fillColor=none;align=center;verticalAlign=middle;whiteSpace=wrap;rounded=0;" parent="1" vertex="1">
          <mxGeometry x="180" y="415" width="60" height="30" as="geometry" />
        </mxCell>
        <mxCell id="FX57eBz4ZlxFUzL5xX__-16" value="&lt;font color=&quot;#ff0000&quot;&gt;36&lt;/font&gt;" style="text;html=1;strokeColor=none;fillColor=none;align=center;verticalAlign=middle;whiteSpace=wrap;rounded=0;" parent="1" vertex="1">
          <mxGeometry x="324" y="555" width="60" height="30" as="geometry" />
        </mxCell>
        <mxCell id="FX57eBz4ZlxFUzL5xX__-18" value="" style="endArrow=classic;html=1;rounded=0;exitX=1;exitY=1;exitDx=0;exitDy=0;entryX=0;entryY=0;entryDx=0;entryDy=0;" parent="1" source="FX57eBz4ZlxFUzL5xX__-2" target="FX57eBz4ZlxFUzL5xX__-6" edge="1">
          <mxGeometry width="50" height="50" relative="1" as="geometry">
            <mxPoint x="340" y="380" as="sourcePoint" />
            <mxPoint x="390" y="330" as="targetPoint" />
          </mxGeometry>
        </mxCell>
        <mxCell id="LTEDrbjMT5N9SQK1M1NF-1" value="root1" style="ellipse;whiteSpace=wrap;html=1;" vertex="1" parent="1">
          <mxGeometry x="660" y="230" width="120" height="80" as="geometry" />
        </mxCell>
        <mxCell id="LTEDrbjMT5N9SQK1M1NF-2" value="1" style="text;html=1;strokeColor=none;fillColor=none;align=center;verticalAlign=middle;whiteSpace=wrap;rounded=0;" vertex="1" parent="1">
          <mxGeometry x="690" y="200" width="60" height="30" as="geometry" />
        </mxCell>
        <mxCell id="LTEDrbjMT5N9SQK1M1NF-3" value="root2" style="ellipse;whiteSpace=wrap;html=1;" vertex="1" parent="1">
          <mxGeometry x="660" y="365" width="120" height="80" as="geometry" />
        </mxCell>
        <mxCell id="LTEDrbjMT5N9SQK1M1NF-4" value="2" style="text;html=1;strokeColor=none;fillColor=none;align=center;verticalAlign=middle;whiteSpace=wrap;rounded=0;" vertex="1" parent="1">
          <mxGeometry x="690" y="340" width="60" height="30" as="geometry" />
        </mxCell>
        <mxCell id="LTEDrbjMT5N9SQK1M1NF-14" style="edgeStyle=orthogonalEdgeStyle;rounded=0;orthogonalLoop=1;jettySize=auto;html=1;exitX=1;exitY=0.5;exitDx=0;exitDy=0;entryX=0;entryY=0.5;entryDx=0;entryDy=0;" edge="1" parent="1" source="LTEDrbjMT5N9SQK1M1NF-5" target="LTEDrbjMT5N9SQK1M1NF-13">
          <mxGeometry relative="1" as="geometry" />
        </mxCell>
        <mxCell id="LTEDrbjMT5N9SQK1M1NF-5" value="stu3" style="ellipse;whiteSpace=wrap;html=1;" vertex="1" parent="1">
          <mxGeometry x="864" y="310" width="120" height="80" as="geometry" />
        </mxCell>
        <mxCell id="LTEDrbjMT5N9SQK1M1NF-6" value="3" style="text;html=1;strokeColor=none;fillColor=none;align=center;verticalAlign=middle;whiteSpace=wrap;rounded=0;" vertex="1" parent="1">
          <mxGeometry x="894" y="390" width="60" height="30" as="geometry" />
        </mxCell>
        <mxCell id="LTEDrbjMT5N9SQK1M1NF-8" value="" style="endArrow=classic;html=1;rounded=0;entryX=0;entryY=0.5;entryDx=0;entryDy=0;exitX=1;exitY=1;exitDx=0;exitDy=0;" edge="1" parent="1" source="LTEDrbjMT5N9SQK1M1NF-3" target="LTEDrbjMT5N9SQK1M1NF-5">
          <mxGeometry width="50" height="50" relative="1" as="geometry">
            <mxPoint x="1020" y="300" as="sourcePoint" />
            <mxPoint x="1070" y="250" as="targetPoint" />
          </mxGeometry>
        </mxCell>
        <mxCell id="LTEDrbjMT5N9SQK1M1NF-9" value="&lt;font color=&quot;#ff0000&quot;&gt;36&lt;/font&gt;" style="text;html=1;strokeColor=none;fillColor=none;align=center;verticalAlign=middle;whiteSpace=wrap;rounded=0;" vertex="1" parent="1">
          <mxGeometry x="767" y="240" width="60" height="30" as="geometry" />
        </mxCell>
        <mxCell id="LTEDrbjMT5N9SQK1M1NF-10" value="&lt;font color=&quot;#ff0000&quot;&gt;36&lt;/font&gt;" style="text;html=1;strokeColor=none;fillColor=none;align=center;verticalAlign=middle;whiteSpace=wrap;rounded=0;" vertex="1" parent="1">
          <mxGeometry x="767" y="415" width="60" height="30" as="geometry" />
        </mxCell>
        <mxCell id="LTEDrbjMT5N9SQK1M1NF-11" value="&lt;font color=&quot;#ff0000&quot;&gt;36&lt;/font&gt;" style="text;html=1;strokeColor=none;fillColor=none;align=center;verticalAlign=middle;whiteSpace=wrap;rounded=0;" vertex="1" parent="1">
          <mxGeometry x="1150" y="370" width="60" height="30" as="geometry" />
        </mxCell>
        <mxCell id="LTEDrbjMT5N9SQK1M1NF-12" value="" style="endArrow=classic;html=1;rounded=0;exitX=1;exitY=1;exitDx=0;exitDy=0;entryX=0;entryY=0.5;entryDx=0;entryDy=0;" edge="1" parent="1" source="LTEDrbjMT5N9SQK1M1NF-1" target="LTEDrbjMT5N9SQK1M1NF-5">
          <mxGeometry width="50" height="50" relative="1" as="geometry">
            <mxPoint x="940" y="370" as="sourcePoint" />
            <mxPoint x="990" y="320" as="targetPoint" />
          </mxGeometry>
        </mxCell>
        <mxCell id="LTEDrbjMT5N9SQK1M1NF-13" value="stu3" style="ellipse;whiteSpace=wrap;html=1;" vertex="1" parent="1">
          <mxGeometry x="1060" y="310" width="120" height="80" as="geometry" />
        </mxCell>
        <mxCell id="LTEDrbjMT5N9SQK1M1NF-15" value="&lt;font color=&quot;#ff0000&quot;&gt;72&lt;/font&gt;" style="text;html=1;strokeColor=none;fillColor=none;align=center;verticalAlign=middle;whiteSpace=wrap;rounded=0;" vertex="1" parent="1">
          <mxGeometry x="954" y="370" width="60" height="30" as="geometry" />
        </mxCell>
      </root>
    </mxGraphModel>
  </diagram>
</mxfile>
